<svg xmlns="http://www.w3.org/2000/svg" viewBox="0 0 400 400" fill="none">
  <defs>
    <radialGradient id="bg" cx="0.5" cy="0.5" r="0.5">
      <stop offset="0%" stop-color="#ffffff" />
      <stop offset="55%" stop-color="#e9eff8" />
      <stop offset="100%" stop-color="#dbe3f2" />
    </radialGradient>
    <linearGradient id="metal" x1="0" y1="0" x2="1" y2="1">
      <stop offset="0%" stop-color="#f7f9ff" />
      <stop offset="45%" stop-color="#ccd6e8" />
      <stop offset="100%" stop-color="#9aa7be" />
    </linearGradient>
    <linearGradient id="needle" x1="0" y1="0" x2="0" y2="1">
      <stop offset="0%" stop-color="#f6d79c" />
      <stop offset="100%" stop-color="#d4a862" />
    </linearGradient>
  </defs>
  <circle cx="200" cy="200" r="170" fill="url(#bg)" />
  <circle cx="200" cy="200" r="150" fill="none" stroke="#c7d2e6" stroke-width="8" />
  <circle cx="200" cy="200" r="120" fill="none" stroke="#dde5f3" stroke-width="6" />
  <circle cx="200" cy="200" r="90" fill="none" stroke="#edf1f9" stroke-width="4" />
  <g stroke="#b5c0d4" stroke-width="2" opacity="0.6">
    <line x1="200" y1="54" x2="200" y2="78" />
    <line x1="200" y1="322" x2="200" y2="346" />
    <line x1="54" y1="200" x2="78" y2="200" />
    <line x1="322" y1="200" x2="346" y2="200" />
  </g>
  <g stroke="#c0cadc" stroke-width="1" opacity="0.5">
    <line x1="110" y1="110" x2="120" y2="120" />
    <line x1="290" y1="110" x2="280" y2="120" />
    <line x1="110" y1="290" x2="120" y2="280" />
    <line x1="290" y1="290" x2="280" y2="280" />
  </g>
  <circle cx="200" cy="200" r="46" fill="#f9fbff" stroke="#d1dae9" stroke-width="4" />
  <circle cx="200" cy="200" r="16" fill="url(#metal)" />
  <path d="M200 90L232 200L200 310L168 200Z" fill="url(#metal)" opacity="0.9" />
  <path d="M200 106L220 200L200 294L180 200Z" fill="url(#needle)" />
  <circle cx="200" cy="200" r="6" fill="#8c96ab" />
</svg>
